<?xml version="1.0" standalone="no"?>
<svg xmlns:xlink="http://www.w3.org/1999/xlink" id="wave" style="transform:rotate(180deg); transition: 0.3s" viewBox="0 0 1440 180" version="1.1" xmlns="http://www.w3.org/2000/svg"><defs><linearGradient id="sw-gradient-0" x1="0" x2="0" y1="1" y2="0"><stop stop-color="rgba(238, 238, 238, 1)" offset="0%"/><stop stop-color="rgba(238, 238, 238, 1)" offset="100%"/></linearGradient></defs><path style="transform:translate(0, 0px); opacity:1" fill="url(#sw-gradient-0)" d="M0,126L60,129C120,132,240,138,360,132C480,126,600,108,720,111C840,114,960,138,1080,138C1200,138,1320,114,1440,114C1560,114,1680,138,1800,126C1920,114,2040,66,2160,66C2280,66,2400,114,2520,120C2640,126,2760,90,2880,69C3000,48,3120,42,3240,36C3360,30,3480,24,3600,39C3720,54,3840,90,3960,90C4080,90,4200,54,4320,60C4440,66,4560,114,4680,126C4800,138,4920,114,5040,102C5160,90,5280,90,5400,81C5520,72,5640,54,5760,54C5880,54,6000,72,6120,72C6240,72,6360,54,6480,57C6600,60,6720,84,6840,78C6960,72,7080,36,7200,42C7320,48,7440,96,7560,96C7680,96,7800,48,7920,27C8040,6,8160,12,8280,24C8400,36,8520,54,8580,63L8640,72L8640,180L8580,180C8520,180,8400,180,8280,180C8160,180,8040,180,7920,180C7800,180,7680,180,7560,180C7440,180,7320,180,7200,180C7080,180,6960,180,6840,180C6720,180,6600,180,6480,180C6360,180,6240,180,6120,180C6000,180,5880,180,5760,180C5640,180,5520,180,5400,180C5280,180,5160,180,5040,180C4920,180,4800,180,4680,180C4560,180,4440,180,4320,180C4200,180,4080,180,3960,180C3840,180,3720,180,3600,180C3480,180,3360,180,3240,180C3120,180,3000,180,2880,180C2760,180,2640,180,2520,180C2400,180,2280,180,2160,180C2040,180,1920,180,1800,180C1680,180,1560,180,1440,180C1320,180,1200,180,1080,180C960,180,840,180,720,180C600,180,480,180,360,180C240,180,120,180,60,180L0,180Z"/></svg>